<svg width="276" height="102" viewBox="0 0 276 102" fill="none" xmlns="http://www.w3.org/2000/svg">
<path d="M26.75 82.8438L18 77.0938C17 77.3646 15.9688 77.5 14.9062 77.5C10.6146 77.5 7.33333 76.2292 5.0625 73.6875C2.8125 71.1458 1.6875 67.4375 1.6875 62.5625V35.9688C1.6875 31.2396 2.84375 27.6458 5.15625 25.1875C7.48958 22.7292 10.8542 21.5 15.25 21.5C19.6458 21.5 23 22.7292 25.3125 25.1875C27.6458 27.6458 28.8125 31.2396 28.8125 35.9688V62.5625C28.8125 67.1042 27.7917 70.6771 25.75 73.2812L30.4688 76.2812L26.75 82.8438ZM15.25 67.375C16.0417 67.375 16.6042 67.0833 16.9375 66.5C17.2917 65.9167 17.5104 65.1979 17.5938 64.3438C17.6979 63.4896 17.75 62.6667 17.75 61.875V36.1562C17.75 34.9896 17.5833 33.9479 17.25 33.0312C16.9375 32.0938 16.25 31.625 15.1875 31.625C14.1042 31.625 13.3958 32.0833 13.0625 33C12.7292 33.8958 12.5625 34.9375 12.5625 36.125V62.0938C12.5625 62.8229 12.6042 63.6042 12.6875 64.4375C12.7917 65.25 13.0312 65.9479 13.4062 66.5312C13.7812 67.0938 14.3958 67.375 15.25 67.375Z" fill="#1A2530"/>
<path d="M86.9375 81V26H97.5625V81H86.9375ZM114.75 81.5C110.771 81.5 107.562 80.2604 105.125 77.7812C102.708 75.3021 101.5 71.8333 101.5 67.375V42C101.5 36.6667 102.552 32.5833 104.656 29.75C106.781 26.9167 110.229 25.5 115 25.5C117.604 25.5 119.917 25.9792 121.938 26.9375C123.979 27.8958 125.583 29.3333 126.75 31.25C127.917 33.1458 128.5 35.5417 128.5 38.4375V47.9375H117.562V39.8125C117.562 38.1667 117.354 37.0625 116.938 36.5C116.521 35.9167 115.875 35.625 115 35.625C113.979 35.625 113.292 36 112.938 36.75C112.583 37.4792 112.406 38.4583 112.406 39.6875V67.2188C112.406 68.7396 112.625 69.8125 113.062 70.4375C113.521 71.0625 114.167 71.375 115 71.375C115.938 71.375 116.594 70.9896 116.969 70.2188C117.365 69.4479 117.562 68.4479 117.562 67.2188V57.3125H128.625V67.7188C128.625 72.5521 127.406 76.0625 124.969 78.25C122.531 80.4167 119.125 81.5 114.75 81.5ZM132.312 81V26H143.188V48.0312L148.312 26H159.375L153.219 51.1875L160.656 81H149.25L143.25 54.375V81H132.312Z" fill="#1A2530"/>
<path d="M163.438 81V26H178.562C182.521 26 185.5 27.1042 187.5 29.3125C189.5 31.5 190.5 34.7083 190.5 38.9375V64.6875C190.5 69.8958 189.583 73.9167 187.75 76.75C185.938 79.5833 182.75 81 178.188 81H163.438ZM174.5 71.2812H176.406C178.427 71.2812 179.438 70.3021 179.438 68.3438V39.9688C179.438 38.1354 179.188 36.9583 178.688 36.4375C178.208 35.8958 177.219 35.625 175.719 35.625H174.5V71.2812ZM195 81V26H217V36.625H206.188V47.3438H216.562V57.6875H206.188V70.2812H217.719V81H195ZM219.875 81L225.188 26H243.844L249.062 81H238.656L237.875 72.125H231.25L230.562 81H219.875ZM232.031 63.3438H237.031L234.625 35.375H234.125L232.031 63.3438ZM252.438 81V26H263.438V71.625H274.75V81H252.438Z" fill="#F9446D"/>
<path d="M57.6 73.832C54.016 73.832 50.7733 73.2347 47.872 72.04C44.9707 70.8453 42.4747 69.1813 40.384 67.048C38.2933 64.9147 36.672 62.44 35.52 59.624C34.4107 56.808 33.856 53.7787 33.856 50.536C33.856 47.2933 34.4107 44.264 35.52 41.448C36.672 38.632 38.272 36.1787 40.32 34.088C42.4107 31.9547 44.9067 30.312 47.808 29.16C50.752 27.9653 54.016 27.368 57.6 27.368C61.1413 27.368 64.3627 27.9653 67.264 29.16C70.208 30.312 72.704 31.9547 74.752 34.088C76.8427 36.1787 78.464 38.6533 79.616 41.512C80.768 44.328 81.344 47.336 81.344 50.536C81.344 53.7787 80.768 56.808 79.616 59.624C78.464 62.44 76.8427 64.9147 74.752 67.048C72.704 69.1813 70.208 70.8453 67.264 72.04C64.3627 73.2347 61.1413 73.832 57.6 73.832ZM57.6 64.68C59.4773 64.68 61.2053 64.3387 62.784 63.656C64.4053 62.9307 65.792 61.928 66.944 60.648C68.096 59.368 68.992 57.8747 69.632 56.168C70.272 54.4187 70.592 52.5413 70.592 50.536C70.592 48.5307 70.272 46.6747 69.632 44.968C68.992 43.2613 68.096 41.768 66.944 40.488C65.792 39.208 64.4053 38.2267 62.784 37.544C61.2053 36.8187 59.4773 36.456 57.6 36.456C55.68 36.456 53.9307 36.8187 52.352 37.544C50.7733 38.2267 49.3867 39.208 48.192 40.488C47.04 41.768 46.144 43.2827 45.504 45.032C44.9067 46.7387 44.608 48.5733 44.608 50.536C44.608 52.5413 44.9067 54.4187 45.504 56.168C46.144 57.8747 47.04 59.368 48.192 60.648C49.3867 61.928 50.7733 62.9307 52.352 63.656C53.9307 64.3387 55.68 64.68 57.6 64.68Z" fill="#1A2530"/>
<rect x="33" y="23" width="49" height="26" fill="white"/>
<circle cx="39.5" cy="39.5" r="5.5" fill="#F9446D"/>
<circle cx="75.5" cy="39.5" r="5.5" fill="#F9446D"/>
</svg>